# xmcd
#
# Track frame offsets:
#	150
#	16683
#	35370
#	61730
#	77120
#	97656
#	113884
#	129601
#	146858
#	168314
#	186852
#	203076
#	229709
#
# Disc length: 3247 seconds
#
# Revision: 2
# Processed by: cddbd v1.5.1PL0 Copyright (c) Steve Scherf et al.
# Submitted via: audiograbber 1.80
#
DISCID=a10cad0d
DTITLE=Judith Owen - Lost and Found
DYEAR=1900
DGENRE=
TTITLE0=Smoke on the Water
TTITLE1=Emily
TTITLE2=Sky High
TTITLE3=Moonlight
TTITLE4=Train Out of Hollywood
TTITLE5=These Foolish Things
TTITLE6=Walking on the Moon
TTITLE7=Famous Friends
TTITLE8=Down
TTITLE9=Bridges
TTITLE10=Enough
TTITLE11=Night and Day
TTITLE12=Dreaming
EXTD=
EXTT0=
EXTT1=
EXTT2=
EXTT3=
EXTT4=
EXTT5=
EXTT6=
EXTT7=
EXTT8=
EXTT9=
EXTT10=
EXTT11=
EXTT12=
PLAYORDER=
